#!OML:ASF H:\BreakDance\Project 1\Capture day 1\Session 1\Male.ASF
:FULLY-SPECIFIED
:DEGREES
1198
root -12.5378 10.8986 -3.78876 380.077 -31.7639 -3.51668
lowerback 16.3201 -2.42517 6.84686
upperback 5.47213 -2.25875 -1.40548
thorax -3.59284 -1.12571 -4.93592
lowerneck -6.7905 3.99332 -2.18219
upperneck 26.8184 8.12597 -9.84036
head 10.0013 2.37662 -2.25024
rclavicle -1.11319e-014 -6.36111e-015
rhumerus 20.1139 16.54 -63.8703
rradius 131.235
rwrist 8.7356
rhand -44.4251 15.0083
rfingers 7.12502
rthumb -17.2304 -14.2478
lclavicle -1.11319e-014 -6.36111e-015
lhumerus -3.99773 -1.39984 58.978
lradius 128.835
lwrist -18.9095
lhand -52.5804 -82.0628
lfingers 7.12502
lthumb -25.0637 -53.6875
rfemur -85.6343 -18.4891 5.57037
rtibia 125.082
rfoot -11.8221 1.94167
rtoes -4.87586
lfemur -107.487 27.4908 -38.0375
ltibia 123.488
lfoot -9.95315 -24.1155
ltoes -2.62369
1199
root -12.4998 10.5816 -3.79719 380.109 -32.9436 -3.03237
lowerback 16.4471 -2.25074 7.59643
upperback 5.65523 -1.93027 -1.67199
thorax -3.44194 -0.95285 -5.71741
lowerneck -7.04856 4.09641 -1.64013
upperneck 26.3465 8.38592 -10.7334
head 9.95931 2.47717 -2.61648
rclavicle -1.78906e-014 5.56597e-014
rhumerus 19.3414 16.7653 -63.9714
rradius 133.069
rwrist 9.41165
rhand -44.7118 16.8227
rfingers 7.12502
rthumb -17.5063 -12.4091
lclavicle -1.78906e-014 5.56597e-014
lhumerus -7.11804 -0.000337801 60.5589
lradius 129.092
lwrist -18.0565
lhand -53.1057 -85.9108
lfingers 7.12502
lthumb -25.567 -57.6067
rfemur -86.0637 -21.2469 4.74192
rtibia 125.799
rfoot -14.0319 3.31438
rtoes -16.4252
lfemur -109.546 28.5179 -39.2115
ltibia 125.531
lfoot -9.81593 -26.8933
ltoes 4.92771
1200
root -12.4613 10.2573 -3.80845 380.238 -34.1957 -2.64714
lowerback 16.6585 -1.99589 8.42174
upperback 5.81306 -1.48027 -2.00721
thorax -3.32937 -0.719314 -6.64487
lowerneck -7.25413 4.14074 -0.887014
upperneck 25.6101 8.48466 -11.5883
head 9.80859 2.54609 -3.01679
rclavicle -3.22031e-014 -2.10712e-014
rhumerus 18.6668 16.6666 -64.0087
rradius 134.617
rwrist 9.68915
rhand -45.0064 18.2859
rfingers 7.12502
rthumb -17.7898 -10.9204
lclavicle -3.22031e-014 -2.10712e-014
lhumerus -9.96388 1.17798 61.7587
lradius 129.065
lwrist -16.934
lhand -53.7173 -88.7734
lfingers 7.12502
lthumb -26.1527 -60.5547
rfemur -86.6749 -24.2941 4.28378
rtibia 126.686
rfoot -17.2119 3.80253
rtoes -27.8972
lfemur -112.112 29.6492 -40.6311
ltibia 127.679
lfoot -9.80582 -29.4312
ltoes 11.8934
1201
root -12.4223 9.93078 -3.82153 380.417 -35.51 -2.38329
lowerback 17.0071 -1.68219 9.30857
upperback 5.95357 -0.931409 -2.38598
thorax -3.26653 -0.437205 -7.68338
lowerneck -7.41593 4.13992 -0.0147446
upperneck 24.6442 8.45085 -12.3801
head 9.56055 2.58558 -3.42309
rclavicle 5.00937e-014 4.21423e-014
rhumerus 18.1103 16.278 -63.9638
rradius 135.85
rwrist 9.59179
rhand -45.2768 19.3865
rfingers 7.12502
rthumb -18.05 -9.796
lclavicle 5.00937e-014 4.21423e-014
lhumerus -12.5782 2.10936 62.5815
lradius 128.755
lwrist -15.4609
lhand -54.31 90.4273
lfingers 7.12502
lthumb -26.72 -62.2938
rfemur -87.5035 -27.7958 4.14528
rtibia 127.918
rfoot -21.082 3.50193
rtoes -37.7665
lfemur -115.279 30.9514 -42.4311
ltibia 130.02
lfoot -9.69913 -31.4618
ltoes 17.2232
1202
root -12.3827 9.60648 -3.83524 380.571 -36.8712 -2.24651
lowerback 17.5761 -1.35837 10.1856
upperback 6.0894 -0.344968 -2.74575
thorax -3.2874 -0.140035 -8.71705
lowerneck -7.55744 4.13445 0.853866
upperneck 23.4825 8.36926 -13.1327
head 9.23689 2.61539 -3.81337
rclavicle 3.97569e-015 3.43897e-014
rhumerus 17.7505 15.6962 -63.7682
rradius 136.754
rwrist 9.17163
rhand -45.5012 20.0683
rfingers 7.12502
rthumb -18.2659 -9.09408
lclavicle 3.97569e-015 3.43897e-014
lhumerus -15.0844 2.8736 63.1007
lradius 128.19
lwrist -13.6534
lhand -54.7387 90.5521
lfingers 7.12502
lthumb -27.1303 -62.482
rfemur -88.5729 -31.8473 4.21626
rtibia 129.487
rfoot -25.1701 3.06467
rtoes -44.2747
lfemur -119.071 32.409 -44.7585
ltibia 132.572
lfoot -9.8294 -32.6444
ltoes 19.3879
1203
root -12.3415 9.28793 -3.84859 380.65 -38.2674 -2.26155
lowerback 18.4455 -1.07539 11.0099
upperback 6.23832 0.219559 -3.03611
thorax -3.42805 0.138499 -9.6593
lowerneck -7.69133 4.16456 1.63387
upperneck 22.1415 8.31689 -13.8802
head 8.85464 2.65796 -4.17669
rclavicle -4.04527e-014 -1.98785e-014
rhumerus 17.6755 14.9947 -63.3782
rradius 137.323
rwrist 8.50157
rhand -45.6739 20.3193
rfingers 7.12502
rthumb -18.432 -8.82741
lclavicle -4.04527e-014 -1.98785e-014
lhumerus -17.5526 3.55952 63.3887
lradius 127.367
lwrist -11.575
lhand -54.8871 -88.9783
lfingers 7.12502
lthumb -27.2722 -60.9304
rfemur -89.9663 -36.3971 4.49898
rtibia 131.23
rfoot -29.0855 3.04141
rtoes -48.329
lfemur -123.408 34.0607 -47.5929
ltibia 135.274
lfoot -10.1606 -33.1057
ltoes 19.5938
1204
root -12.2974 8.97975 -3.86041 380.617 -39.704 -2.4514
lowerback 19.6757 -0.861499 11.7202
upperback 6.4173 0.726979 -3.2091
thorax -3.71634 0.376194 -10.4177
lowerneck -7.81554 4.25597 2.25273
upperneck 20.6226 8.34413 -14.6575
head 8.4221 2.729 -4.50785
rclavicle -5.5287e-014 4.22169e-014
rhumerus 17.9496 14.224 -62.7554
rradius 137.571
rwrist 7.6516
rhand -45.8178 20.1714
rfingers 7.12502
rthumb -18.5705 -8.96215
lclavicle -5.5287e-014 4.22169e-014
lhumerus -20.044 4.24895 63.5402
lradius 126.28
lwrist -9.35538
lhand -54.726 -85.8636
lfingers 7.12502
lthumb -27.118 -57.7915
rfemur -91.8193 -41.1055 5.0058
rtibia 132.966
rfoot -32.5804 4.0493
rtoes -50.4997
lfemur -128.189 35.9724 -50.8941
ltibia 138.001
lfoot -10.6641 -33.1345
ltoes 18.9921
1205
root -12.2499 8.68345 -3.86925 380.427 -41.0755 -2.78359
lowerback 21.2565 -0.75542 12.2616
upperback 6.64619 1.12111 -3.20095
thorax -4.14958 0.543185 -10.8733
lowerneck -7.92498 4.41397 2.61404
upperneck 18.9146 8.46692 -15.4748
head 7.93775 2.83291 -4.79281
rclavicle -3.35946e-014 8.19987e-014
rhumerus 18.6127 13.4214 -61.8248
rradius 137.519
rwrist 6.71067
rhand -46.0013 19.656
rfingers 7.12502
rthumb -18.747 -9.46062
lclavicle -3.35946e-014 8.19987e-014
lhumerus -22.585 4.99909 63.7309
lradius 124.894
lwrist -7.2364
lhand -54.3287 -81.6998
lfingers 7.12502
lthumb -26.7379 -53.5691
rfemur -94.1955 -45.757 5.81173
rtibia 134.571
rfoot -35.5375 6.13853
rtoes -51.5832
lfemur -133.216 38.061 -54.5237
ltibia 140.61
lfoot -11.3032 -33.3189
ltoes 17.9441
1206
root -12.1996 8.39791 -3.87496 380.085 -42.2843 -3.24404
lowerback 23.1222 -0.756157 12.7541
upperback 6.93149 1.41901 -3.05729
thorax -4.67808 0.651724 -11.1458
lowerneck -7.96256 4.59051 2.78166
upperneck 17.002 8.58831 -16.2783
head 7.37836 2.94323 -5.03635
rclavicle -8.05078e-015 6.37105e-014
rhumerus 19.5222 12.4902 -60.6678
rradius 137.21
rwrist 5.86036
rhand -46.3108 18.8034
rfingers 7.12502
rthumb -19.0446 -10.2842
lclavicle -8.05078e-015 6.37105e-014
lhumerus -25.0683 5.67536 63.9401
lradius 123.181
lwrist -5.33076
lhand -53.822 -77.0755
lfingers 7.12502
lthumb -26.2529 -48.8716
rfemur -97.1149 -50.1658 7.07233
rtibia 135.979
rfoot -38.0003 8.66995
rtoes -52.1981
lfemur -138.388 40.3107 -58.3465
ltibia 143.042
lfoot -11.8232 -34.1555
ltoes 17.1429
1207
root -12.1475 8.12515 -3.87805 379.608 -43.2689 -3.82312
lowerback 25.2027 -0.84664 13.3373
upperback 7.2663 1.66733 -2.85599
thorax -5.24529 0.729334 -11.4121
lowerneck -7.87499 4.72574 2.9035
upperneck 14.8969 8.59305 -17.0215
head 6.73048 3.02466 -5.26324
rclavicle 1.68967e-014 1.45113e-014
rhumerus 20.4669 11.3259 -59.4224
rradius 136.695
rwrist 5.24662
rhand -46.8303 17.6672
rfingers 7.12502
rthumb -19.5441 -11.3704
lclavicle 1.68967e-014 1.45113e-014
lhumerus -27.2993 6.07731 64.1415
lradius 121.048
lwrist -3.72466
lhand -53.3303 -72.4159
lfingers 7.12502
lthumb -25.7821 -44.1428
rfemur -100.47 -54.4285 8.7494
rtibia 137.26
rfoot -39.9303 12.3858
rtoes -51.9938
lfemur -143.605 42.6139 -62.2468
ltibia 145.246
lfoot -12.4335 -35.7124
ltoes 16.3058
